<?xml version="1.0" encoding="utf-8"?>
<!-- Generator: Adobe Illustrator 24.0.3, SVG Export Plug-In . SVG Version: 6.00 Build 0)  -->
<svg version="1.1" id="Layer_1" xmlns="http://www.w3.org/2000/svg" xmlns:xlink="http://www.w3.org/1999/xlink" x="0px" y="0px"
	 viewBox="0 0 90 90" style="enable-background:new 0 0 90 90;" xml:space="preserve">
<style type="text/css">
	.st0{fill:#003087;}
	.st1{fill:#FFFFFF;}
</style>
<rect class="st0" width="90" height="90"/>
<g>
	<path class="st1" d="M49,36.49v-0.37c1.81-0.27,1.89-0.56,1.91-2.47V23.32c0-1.03,0.02-1.34-1.2-2.23v-0.24l2.4-1.08l0.27,0.1
		v13.78c0,2.01,0.1,2.2,1.91,2.47v0.37H49z"/>
	<path class="st1" d="M34.39,28.59c0-1.89-0.71-2.36-1.86-2.36c-2.52,0-1.48,2.82-3.09,2.82c-0.47,0-0.8-0.24-0.8-0.74
		c0-1.01,2.46-2.74,4.57-2.74c1.83,0,2.73,1.3,2.73,3.65v5.99c0,0.63,0.75,0.43,1.05,0.43c0.41,0,0.69-0.16,0.95-0.41l0.27,0.3
		c-0.38,0.61-1.31,1.04-2.13,1.04c-0.85,0-1.64-0.6-1.7-1.61c-1.29,1.18-2.55,1.61-3.58,1.61c-1.56,0-2.1-0.93-2.1-2.13
		c0-1.89,1-2.44,4.21-3.26l1.47-0.38V28.59z M34.39,31.25l-1.09,0.28c-2.05,0.52-3.12,1.15-3.12,2.3c0,1.01,0.57,1.84,1.8,1.84
		c0.87,0,1.67-0.55,2.41-1.12V31.25z"/>
	<path class="st1" d="M21.58,27.71c2.23,0.51,4.48,1.67,4.48,4.55c0,4.53-5.31,4.31-6.54,4.28l-5.65-0.05v-0.37
		c2.94-0.39,2.55-1.13,2.62-3.65v-8.49c-0.07-2.52,0.31-3.25-2.48-3.62V20l3.89-0.19c2.74-0.1,7.05,0.29,7.05,4.16
		c0,2.4-1.45,3.21-3.38,3.69V27.71z M17.98,32.26c0,1.91-0.12,3.72,2.37,3.72c2.13,0,4.04-1.4,4.04-3.55c0-1.5-1.8-4.46-5.45-4.28
		l-0.95,0.05V32.26z M17.98,27.68c2.27-0.03,5.51-0.64,5.51-3.48c0-2.93-3.01-3.84-5.51-3.84V27.68z"/>
	<path class="st1" d="M39.58,27.59c-0.44-1.11-0.54-1.35-1.77-1.54v-0.37h4.54v0.37c-1.86,0.09-1.37,1.22-0.88,2.47l2.4,6.22
		l1.52-4.41c1.1-3.18,1.3-4.04-0.52-4.28v-0.37h4.28v0.37c-1.08,0.12-1.42,0.56-1.88,1.49l-1.03,2.37l-3.16,7.75
		c-0.9,2.28-1.54,3.03-2.52,3.03c-0.66,0-1.2-0.54-1.2-1.22c0-0.52,0.3-0.98,0.79-1.15c0.24,0.15,1,0.69,1.3,0.69
		c0.54,0,0.98-1.32,1.15-1.69l0.2-0.58L39.58,27.59z"/>
	<path class="st1" d="M60.88,36.73c-3.36,0-5.39-2.13-5.39-5.6c0-3.38,2.13-5.7,5.41-5.7c3.32,0,5.61,2.16,5.61,5.6
		C66.52,34.36,64.11,36.73,60.88,36.73 M60.85,25.97c-2.64,0-3.72,2.74-3.72,5c0,2.27,1.27,5.24,3.92,5.24
		c2.47,0,3.57-2.82,3.57-4.92C64.62,29.02,63.52,25.97,60.85,25.97"/>
	<path class="st1" d="M71.53,33.65c0.01,1.5-0.19,2.26,1.73,2.47v0.37h-5.04v-0.37c1.69-0.27,1.76-0.56,1.78-2.47v-4.68
		c0-1.02,0.02-1.34-1.2-2.22v-0.24l2.55-1.08l0.27,0.1l-0.1,2.89h0.05c0.54-1.3,1.91-2.99,3.46-2.99c0.68,0,1.25,0.44,1.25,1.13
		c0,0.65-0.71,1.27-1.28,1.54c-0.42-0.31-1.03-0.85-1.57-0.8c-2.08,0.19-1.91,3.52-1.91,3.89V33.65z"/>
	<path class="st1" d="M23.78,46h-0.21c-0.27-1.59-1.19-2.73-2.89-2.73c-2.58,0-4.02,2.11-4.02,4.53c0,2.77,2.12,4.7,4.16,4.7
		c1.85,0,2.58-1.35,3.21-2.87l0.2,0.09c-0.17,0.86-0.44,1.7-0.78,2.51c-0.9,0.44-1.87,0.61-2.87,0.61c-2.94,0-5.56-1.69-5.56-4.87
		c0-2.51,1.95-5.04,5.67-5.04c1.07,0,2.15,0.21,3.08,0.76V46z"/>
	<path class="st1" d="M28.76,52.81c-1.93,0-3.47-1.22-3.47-3.22c0-1.94,1.59-3.28,3.48-3.28c1.92,0,3.45,1.24,3.45,3.22
		C32.22,51.45,30.62,52.81,28.76,52.81 M28.75,46.62c-1.52,0-2.14,1.57-2.14,2.87c0,1.31,0.73,3.01,2.25,3.01
		c1.42,0,2.06-1.62,2.06-2.83C30.92,48.37,30.28,46.62,28.75,46.62"/>
	<path class="st1" d="M32.69,52.67v-0.21c1.04-0.16,1.09-0.32,1.1-1.42v-6.18c0-0.59,0.01-0.77-0.69-1.28v-0.14l1.62-0.62l0.15,0.05
		v8.17c0,1.15,0.06,1.27,1.1,1.42v0.21H32.69z"/>
	<path class="st1" d="M36.49,52.67v-0.21c1.04-0.16,1.08-0.32,1.09-1.42v-6.18c0-0.59,0.02-0.77-0.69-1.28v-0.14l1.62-0.62
		l0.16,0.05v8.17c0,1.15,0.05,1.27,1.1,1.42v0.21H36.49z"/>
	<path class="st1" d="M41.27,49.08c-0.11,1.46,0.88,2.83,2.48,2.83c0.73,0,1.24-0.33,1.66-0.89l0.21,0.16
		c-0.54,0.91-1.49,1.63-2.59,1.63c-1.74,0-2.95-1.44-2.95-3.12c0-1.82,1.26-3.38,3.16-3.38c1.27,0,2.11,0.8,2.17,2.07h-4.08
		L41.27,49.08z M44.08,48c-0.13-0.65-0.53-1.38-1.27-1.38c-0.8,0-1.28,0.79-1.43,1.49L44.08,48z"/>
	<path class="st1" d="M50.89,51.6c1.51-0.05,2.34,0.57,2.34,1.52c0,1.38-1.87,2.96-4.38,2.96c-1.68,0-2.37-0.85-2.37-1.43
		c0-1.06,1.09-1.55,1.89-1.97c-0.54-0.07-1.44-0.42-1.44-1.07c0-0.44,0.75-0.99,1.07-1.24c-0.67-0.38-1.15-1.01-1.15-1.8
		c0-1.45,1.33-2.25,2.65-2.25c0.69,0,1.22,0.17,1.84,0.45h2.01v0.59l-1.72-0.04c0.2,0.35,0.28,0.68,0.28,1.1
		c0,1.44-1.3,2.25-2.62,2.25c-0.35,0-0.71-0.06-1.05-0.19c-0.47,0.44-0.45,1.26,0.84,1.19L50.89,51.6z M48.82,52.67
		c-0.51,0.22-1.31,0.78-1.31,1.4c0,1.03,1.49,1.31,2.28,1.31c1.01,0,2.59-0.44,2.59-1.69c0-1.32-1.83-1.13-2.18-1.11L48.82,52.67z
		 M50.72,48.61c0-0.92-0.41-1.99-1.46-1.99c-0.91,0-1.21,0.95-1.21,1.7c0,1.39,0.84,2.03,1.48,2.03
		C50.46,50.35,50.72,49.39,50.72,48.61"/>
	<path class="st1" d="M55.35,49.08c-0.11,1.46,0.89,2.83,2.48,2.83c0.73,0,1.24-0.33,1.66-0.89l0.21,0.16
		c-0.53,0.91-1.49,1.63-2.59,1.63c-1.74,0-2.96-1.44-2.96-3.12c0-1.82,1.27-3.38,3.17-3.38c1.26,0,2.11,0.8,2.16,2.07H55.4
		L55.35,49.08z M58.15,48c-0.13-0.65-0.52-1.38-1.27-1.38c-0.8,0-1.28,0.79-1.44,1.49L58.15,48z"/>
	<path class="st1" d="M66.2,52.81c-1.93,0-3.46-1.22-3.46-3.22c0-1.94,1.59-3.28,3.48-3.28c1.92,0,3.45,1.24,3.45,3.22
		C69.66,51.45,68.06,52.81,66.2,52.81 M66.18,46.62c-1.52,0-2.14,1.57-2.14,2.87c0,1.31,0.73,3.01,2.25,3.01
		c1.42,0,2.06-1.62,2.06-2.83C68.35,48.37,67.72,46.62,66.18,46.62"/>
	<path class="st1" d="M70.13,47.04l1.14-0.66c0.01-0.83,0.11-1.59,0.56-2.31c0.53-0.84,1.41-1.51,2.43-1.51
		c0.55,0,1.63,0.23,1.63,0.95c0,0.45-0.4,0.61-0.78,0.6C74.79,43.63,74.19,43,73.58,43c-1.14,0-1.23,1.94-1.23,2.75v0.84h1.83v0.59
		h-1.83v3.86c0,1.15,0.06,1.27,1.35,1.42v0.21h-3.56v-0.21c1.07-0.16,1.11-0.32,1.12-1.42v-3.86h-1.14V47.04z"/>
	<path class="st1" d="M29.98,65.79c-0.13,1.69,1.03,3.27,2.87,3.27c0.84,0,1.43-0.37,1.92-1.02L35,68.21
		c-0.61,1.06-1.72,1.89-2.99,1.89c-2.01,0-3.41-1.66-3.41-3.62c0-2.09,1.46-3.9,3.66-3.9c1.46,0,2.44,0.93,2.5,2.39h-4.72
		L29.98,65.79z M33.22,64.53c-0.15-0.75-0.6-1.59-1.46-1.59c-0.93,0-1.48,0.91-1.66,1.72L33.22,64.53z"/>
	<path class="st1" d="M47.49,60.26c0,0.46-0.38,0.83-0.83,0.83c-0.45,0-0.83-0.38-0.83-0.83c0-0.46,0.38-0.83,0.83-0.83
		C47.12,59.43,47.49,59.8,47.49,60.26"/>
	<path class="st1" d="M59.37,60.26c0,0.46-0.38,0.83-0.84,0.83c-0.46,0-0.83-0.38-0.83-0.83c0-0.46,0.37-0.83,0.83-0.83
		C58.99,59.43,59.37,59.8,59.37,60.26"/>
	<path class="st1" d="M41.72,70.23v-1.55c-0.73,0.72-1.59,1.42-2.69,1.42c-1.75,0-3.06-1.73-3.06-3.39c0-2.47,2-4.13,4.39-4.13
		c0.47,0,0.92,0.05,1.35,0.16v-2.13c0-0.68,0.01-0.34-0.8-0.93v-0.16l1.87-0.71l0.18,0.07v8.98c0,1.5,0,1.69,1.36,1.5l0.07,0.27
		L41.72,70.23z M41.72,65.38c0-1.89-1.43-2.29-2.2-2.29c-1.51,0-2.16,1.54-2.16,2.84c0,2.34,1.4,3.35,2.6,3.35
		c0.65,0,1.41-0.57,1.76-1.13V65.38z"/>
	<path class="st1" d="M44.87,69.93v-0.24c1.2-0.18,1.25-0.38,1.27-1.65v-3.1c0-0.69,0.02-0.89-0.99-1.48V63.3l2.06-0.72l0.18,0.07
		v5.4c0,1.33,0.07,1.47,1.27,1.65v0.24H44.87z"/>
	<path class="st1" d="M55.7,68.75c-0.73,0.83-1.74,1.35-2.86,1.35c-1.98,0-3.35-1.66-3.35-3.57c0-2.28,1.98-3.95,4.18-3.95
		c0.52,0,1.77,0.07,1.77,0.81c0,0.36-0.39,0.75-0.76,0.75c-0.58,0-1.15-1.05-1.97-1.05c-1.3,0-1.92,1.51-1.92,2.61
		c0,2.1,1.43,3.43,3.04,3.43c0.67,0,1.14-0.24,1.68-0.63L55.7,68.75z"/>
	<path class="st1" d="M56.54,69.93v-0.24c1.21-0.18,1.25-0.38,1.27-1.65v-3.1c0-0.69,0.02-0.89-0.99-1.48V63.3l2.06-0.72l0.18,0.07
		v5.4c0,1.33,0.06,1.47,1.27,1.65v0.24H56.54z"/>
	<path class="st1" d="M62.11,64.94c0-0.69,0.02-0.89-0.79-1.48V63.3l1.93-0.72l0.18,0.07l-0.13,1.19c0.92-0.68,1.82-1.25,2.86-1.25
		c1.96,0,2.05,1.62,2.05,2.57v2.89c0,1.33,0.06,1.47,1.27,1.65v0.24h-3.79v-0.24c1.21-0.18,1.26-0.38,1.27-1.65v-1.87
		c0-1.14,0.05-2.75-1.94-2.75c-0.67,0-1.12,0.21-1.66,0.7v3.91c0,1.33,0.06,1.47,1.27,1.65v0.24h-3.79v-0.24
		c1.2-0.18,1.25-0.38,1.27-1.65V64.94z"/>
	<path class="st1" d="M71.24,65.79c-0.13,1.69,1.03,3.27,2.86,3.27c0.85,0,1.43-0.37,1.92-1.02l0.24,0.18
		c-0.62,1.06-1.72,1.89-2.99,1.89c-2.02,0-3.41-1.66-3.41-3.62c0-2.09,1.47-3.9,3.66-3.9c1.46,0,2.44,0.93,2.5,2.39h-4.72
		L71.24,65.79z M74.48,64.53c-0.14-0.75-0.6-1.59-1.47-1.59c-0.93,0-1.48,0.91-1.66,1.72L74.48,64.53z"/>
	<path class="st1" d="M23.74,69.59c1.25-0.07,1.55-0.28,1.53-1.01c-0.07-2.62-0.07-5.3-0.18-7.86h-0.03
		c-1.4,3.02-2.97,6.15-4.14,9.05h-0.24c-0.31-0.68-0.78-2.03-1.34-3.14c-0.58-1.15-1.73-3.71-2.76-6.12h-0.04
		c-0.02,2.84-0.14,5.51-0.14,7.1c0,1.41,0.31,1.99,1.59,1.99v0.35h-3.63v-0.35c1-0.18,1.36-0.42,1.47-1.83
		c0.17-2.23,0.26-5.63,0.26-6.54c0-1.78-0.24-1.92-1.57-1.99v-0.35h2.87l3.1,7.04c0.24,0.56,0.51,1.03,0.74,1.7l4.2-8.74h2.69v0.35
		c-1.38,0.09-1.67,0.42-1.67,1.76c0,0.68,0.12,4.51,0.17,7.67c0.02,0.7,0.42,0.86,1.5,0.93v0.35h-4.39V69.59z"/>
</g>
</svg>
